<svg xmlns="http://www.w3.org/2000/svg" width="12.773" height="16.583" viewBox="0 0 12.773 16.583">
  <path id="Combined-Shape" d="M6.386,0a.724.724,0,0,1,.7.651l.006.1V14l4.472-4.787a.676.676,0,0,1,1,0,.791.791,0,0,1,.07.981l-.068.085-5.679,6.08a.721.721,0,0,1-.117.1l-.038.024-.035.02-.053.024-.041.016-.053.016-.037.009-.056.008-.044,0H6.359l-.042,0,.069,0a.668.668,0,0,1-.131-.013l-.031-.007c-.021-.005-.042-.012-.062-.019l-.031-.012c-.021-.009-.042-.018-.061-.029l-.029-.016L6,16.458l-.032-.024-.008-.007a.727.727,0,0,1-.071-.066h0l-5.68-6.08a.789.789,0,0,1,0-1.066.675.675,0,0,1,.921-.071l.079.073L5.679,14V.754A.732.732,0,0,1,6.386,0Z" transform="translate(0)" fill="#9ca0a6"/>
</svg>
